PathFileType	4	(X/Y/Z)	D:\TRACE\v60_Jaco2_6-2-23\BothDRS_Motion1_9-v60.trc
DataRate	CameraRate	NumFrames	NumMarkers	Units	OrigDataRate	OrigDataStartFrame	OrigNumFrames
100.00	100.00	      21	9	mm	100.00	1	      7500
Frame#	Time	front left toe			Front right toe			aft left toe			aft right toe			Arm			FL body			FR body			AL Body			AR Body			
		X1	Y1	Z1	X2	Y2	Z2	X3	Y3	Z3	X4	Y4	Z4	X5	Y5	Z5	X6	Y6	Z6	X7	Y7	Z7	X8	Y8	Z8	X9	Y9	Z9	

1	0.000	-148.72455	19.35834	-279.36353	261.65585	18.33193	-255.48186	-188.33278	15.06156	357.99591	216.80064	18.30351	353.46646	67.25185	1206.32361	-298.72556	-17.26275	576.33887	-406.79214	142.13797	575.85162	-398.91949	-65.92863	582.81653	538.63220	91.17370	575.95746	546.55634	
2	0.010	-148.72522	19.37885	-279.38562	261.69391	18.37070	-255.47925	-188.32680	15.04070	358.02158	216.85962	18.33813	353.48965	67.27320	1206.34180	-298.71442	-17.33165	576.38660	-406.85934	142.32043	575.82007	-398.87411	-65.92141	582.82483	538.62738	91.22010	575.94080	546.55072	
3	0.020	-148.74480	19.34534	-279.36642	261.69946	18.34619	-255.47084	-189.58572	16.03542	358.17145	216.91896	18.33329	353.46176	67.28304	1206.33020	-298.71695	-17.30151	576.35870	-406.82733	142.23839	575.84222	-398.91360	-65.90761	582.81830	538.60992	91.25329	575.95868	546.55084	
4	0.030	-148.72122	19.39011	-279.36530	261.66611	18.34761	-255.46832	-188.45059	15.10106	357.99161	216.78152	18.28907	353.48129	67.22768	1206.31934	-298.74399	-17.27522	576.32336	-406.80048	142.13187	575.84424	-398.92471	-65.94532	582.81177	538.59772	91.17416	575.93665	546.54547	
5	0.040	-148.71478	19.36354	-279.36377	261.70148	18.30143	-255.47189	-188.42371	15.11917	357.99445	216.80931	18.22783	353.48315	67.24192	1206.32837	-298.73480	-17.27419	576.36548	-406.82098	142.21992	575.82208	-398.89987	-65.87572	582.79285	538.61371	91.18187	575.92725	546.54657	
6	0.050	-148.74011	19.38072	-279.38635	261.66953	18.30185	-255.48232	-188.35257	15.04291	358.02579	216.75607	18.28793	353.46957	67.28201	1206.31165	-298.70218	-17.31045	576.37939	-406.81699	142.23228	575.83691	-398.90356	-65.94689	582.82117	538.57941	91.21193	575.94922	546.54181	
7	0.060	-148.73331	19.39686	-279.38452	261.69214	18.35012	-255.47743	-188.32399	15.04834	357.99133	216.89235	18.33753	353.52405	67.25806	1206.32654	-298.72592	-17.32289	576.37317	-406.83093	142.27328	575.80054	-398.90329	-65.90352	582.82892	538.60815	91.15031	575.94244	546.53253	
8	0.070	-148.73201	19.41548	-279.38931	261.71124	18.38379	-255.48260	-188.43022	15.09658	358.02338	216.91298	18.38032	353.52603	67.31943	1206.32520	-298.71906	-17.23286	576.29254	-406.80408	142.27650	575.84778	-398.93488	-65.89024	582.81982	538.61951	91.16019	575.94611	546.54919	
9	0.080	-148.71535	19.35335	-279.37433	261.66910	18.35028	-255.46268	-188.39571	15.08146	357.97507	216.75693	18.27967	353.48477	67.25709	1206.31921	-298.72760	-17.28175	576.34283	-406.82837	142.21460	575.83325	-398.90823	-65.91357	582.81158	538.60297	91.20562	575.93268	546.54504	
10	0.090	-148.67030	19.31188	-279.36905	261.69250	18.35213	-255.45369	-188.37717	15.09462	357.96957	216.82362	18.28376	353.52322	67.25010	1206.32239	-298.72794	-17.31899	576.38129	-406.83780	142.28207	575.84210	-398.88324	-65.89082	582.80194	538.63837	91.23978	575.93268	546.53381	
11	0.100	-148.74698	19.35409	-279.34195	261.67014	18.35504	-255.47458	-188.36606	15.10225	358.00571	216.68631	18.20243	353.45892	67.24063	1206.32642	-298.72662	-17.28496	576.36536	-406.83673	142.21414	575.84167	-398.92911	-65.90479	582.77478	538.62360	91.15318	575.93164	546.54407	
12	0.110	-148.68840	19.32634	-279.36676	261.68130	18.33191	-255.46980	-188.42064	15.14598	357.99088	216.74979	18.25972	353.48428	67.26408	1206.32593	-298.71930	-17.30445	576.40289	-406.80417	142.20654	575.85675	-398.90848	-65.92149	582.80713	538.62958	91.17218	575.93488	546.53516	
13	0.120	-148.67137	19.30145	-279.36844	261.68710	18.36627	-255.46539	-189.56821	16.03069	358.18677	216.85851	18.27973	353.50131	67.24076	1206.33606	-298.72638	-17.32380	576.39142	-406.82758	142.22188	575.83191	-398.92569	-65.90036	582.80646	538.59912	91.20564	575.93457	546.55280	
14	0.130	-148.73563	19.34622	-279.37982	261.69214	18.35376	-255.45918	-188.30876	15.03427	357.96997	216.79573	18.22403	353.47546	67.22520	1206.32922	-298.74304	-17.28950	576.34430	-406.80237	142.19237	575.82440	-398.93164	-65.88792	582.79846	538.60455	91.17018	575.92938	546.53766	
15	0.140	-148.67310	19.31688	-279.38232	261.69287	18.35962	-255.45081	-188.40070	15.09827	358.00031	216.84872	18.28977	353.51974	67.24078	1206.31580	-298.72003	-17.29804	576.40082	-406.81021	142.23602	575.85382	-398.91837	-65.89119	582.79865	538.61536	91.20714	575.92529	546.52814	
16	0.150	-148.71744	19.33861	-279.37015	261.66159	18.36040	-255.46851	-188.46912	15.04710	358.08200	216.75993	18.20173	353.51917	67.18207	1206.31445	-298.74240	-17.28990	576.38605	-406.82739	142.26566	575.86041	-398.89786	-65.95150	582.78314	538.61853	91.14814	575.90308	546.53430	
17	0.160	-148.64755	19.33487	-279.38617	261.67303	18.32482	-255.45866	-188.36482	15.04308	358.02258	216.71117	18.22513	353.49026	67.22713	1206.33765	-298.74567	-17.34398	576.42194	-406.85257	142.27725	575.84076	-398.89465	-65.93762	582.79034	538.60413	91.22492	575.93622	546.55835	
18	0.170	-148.75836	19.38216	-279.39325	261.68640	18.33393	-255.47427	-188.43082	15.07968	357.98676	216.79030	18.30149	353.48895	67.25050	1206.33875	-298.73053	-17.29082	576.35931	-406.83356	142.29298	575.83704	-398.92014	-65.94357	582.81763	538.62048	91.22717	575.92255	546.54254	
19	0.180	-148.69150	19.38667	-279.35995	261.70227	18.37929	-255.46388	-188.39183	15.10251	358.03125	216.81438	18.28711	353.50476	67.26962	1206.32581	-298.71933	-17.26198	576.35449	-406.83032	142.19720	575.85596	-398.90726	-65.92767	582.82959	538.58942	91.26308	575.93341	546.55475	
20	0.190	-148.74794	19.37627	-279.35468	261.69308	18.37252	-255.46190	-188.37210	15.06720	357.98431	216.91287	18.34099	353.51202	67.26131	1206.34607	-298.72437	-17.29377	576.36456	-406.82297	142.24538	575.83649	-398.93231	-65.87897	582.82019	538.62933	91.22054	575.94391	546.53729	
21	0.200	-148.71155	19.36421	-279.35446	261.66739	18.33478	-255.46326	-188.37039	15.07845	357.99457	216.74249	18.25918	353.47226	67.19728	1206.33276	-298.73441	-17.26805	576.38013	-406.77301	142.31891	575.81903	-398.87701	-65.96758	582.81696	538.62463	91.18836	575.92407	546.56238	
